<?xml version="1.0" encoding="UTF-8" standalone="no"?>
<svg
   width="1600"
   height="51.103951"
   viewBox="0 0 1600 51.10395"
   fill="none"
   version="1.1"
   id="svg131"
   sodipodi:docname="transition-line.svg"
   inkscape:version="1.4.2 (f4327f4, 2025-05-13)"
   xmlns:inkscape="http://www.inkscape.org/namespaces/inkscape"
   xmlns:sodipodi="http://sodipodi.sourceforge.net/DTD/sodipodi-0.dtd"
   xmlns="http://www.w3.org/2000/svg"
   xmlns:svg="http://www.w3.org/2000/svg">
  <sodipodi:namedview
     id="namedview131"
     pagecolor="#ffffff"
     bordercolor="#000000"
     borderopacity="0.25"
     inkscape:showpageshadow="2"
     inkscape:pageopacity="0.0"
     inkscape:pagecheckerboard="0"
     inkscape:deskcolor="#d1d1d1"
     inkscape:zoom="1.5864811"
     inkscape:cx="938.55513"
     inkscape:cy="-92.342731"
     inkscape:window-width="3440"
     inkscape:window-height="1369"
     inkscape:window-x="1912"
     inkscape:window-y="-8"
     inkscape:window-maximized="1"
     inkscape:current-layer="svg131"
     showguides="true">
    <sodipodi:guide
       position="1.9958357e-05,7.9484844"
       orientation="1,0"
       id="guide1"
       inkscape:locked="false" />
    <sodipodi:guide
       position="1443.441,10.050644"
       orientation="1,0"
       id="guide2"
       inkscape:locked="false" />
  </sodipodi:namedview>
  <path
     d="M 1.9962331e-5,0 V 33.287034 C 0.01459108,33.159103 0.24160927,32.978907 0.79455979,32.721082 c 0.17154509,-0.07289 3.45076771,-0.46322 4.27579361,-0.88365 0.569759,-0.288878 -0.4565057,-1.186625 0.7079416,-1.555501 1.1630725,-0.369765 2.4417943,0.381806 4.366722,-0.05729 1.933295,-0.445318 1.070904,-1.463796 4.931776,-1.598902 5.157105,-0.17155 11.182661,-0.188786 17.233071,-0.02257 0.539488,-0.072 1.701763,-0.221131 2.320836,-0.267351 1.234935,-0.111996 2.401962,-0.175994 3.489915,-0.222215 2.197409,-0.08977 4.341403,-0.118899 6.243741,-0.119787 2.836436,0.0027 1.409256,0.619825 3.40548,0.65449 3.86298,0.07555 7.321281,-0.286212 11.097579,-0.111107 1.238037,0.06222 -0.29589,0.975466 1.0132,1.020798 7.18004,0.243547 13.92016,-0.05944 21.110515,0.06945 24.2319,0.447984 48.01279,0.89826 72.33127,1.348911 11.099,0.212437 22.69641,0.41186 34.00934,0.616298 11.80176,0.212437 26.29168,1.11042 38.46699,0.841985 1.42658,-0.03289 0.57926,-0.81275 0.85083,-0.87497 4.27755,-0.948411 2.85148,0.60491 5.6592,0.831569 10.98039,0.893302 23.27089,1.046963 33.95088,0.819415 4.49037,-0.100441 -0.0111,-1.669316 4.51827,-0.776014 0.3148,0.06133 -0.83107,0.876191 0.40485,0.972188 2.79444,0.215993 8.18348,0.104024 10.35717,0.184021 4.16891,0.156439 4.86242,0.151939 8.83736,0.187493 5.47466,0.056 11.87745,0.506913 17.72234,0.359363 1.24702,-0.03467 -0.39954,-0.8884 1.59125,-1.019062 2.00631,-0.129773 7.24378,-0.02401 9.00623,0.185758 1.76689,0.210659 1.0102,0.868761 1.32279,1.022534 2.56498,1.298621 8.66842,-0.436568 9.45654,-0.475678 14.21931,-0.655088 26.46597,0.435526 39.84174,0.519079 10.15571,0.06133 21.01814,-0.203035 30.68612,-0.09548 11.51023,0.132439 21.28169,0.652922 32.45274,0.645811 1.1783,0 -0.19936,-1.00166 1.24052,-1.003438 15.34995,-0.01778 30.49547,0.187785 45.78888,0.953092 1.52634,0.07733 -0.44272,0.935315 1.08031,1.0642 9.35872,0.774195 24.13472,2.584396 29.73354,-1.168363 6.28608,0.18755 14.06266,0.388376 19.69031,1.187459 3.63353,0.513759 0.0877,1.440186 4.56807,1.064199 1.022,-0.08444 -0.30332,-0.921232 1.22968,-0.984341 6.47673,-0.263991 13.30783,0.04816 19.73578,-0.340266 1.29023,-0.08178 0.93966,-0.827596 1.30545,-0.960036 3.08707,-1.064852 8.08736,0.758918 9.23572,0.895803 8.56728,1.024853 14.62405,0.679712 22.57836,0.75171 1.82341,0.01689 -0.32682,-0.994299 1.42454,-1.013854 9.10824,-0.088 18.56165,0.0543 27.55126,0.552064 1.97197,0.111996 0.15438,0.952536 1.09545,1.05031 4.09027,0.418652 5.14499,-1.181389 9.16645,-0.810735 0.82921,0.07465 0.3928,0.770606 0.5153,0.878442 0,0.0016 0.007,0.0039 0.009,0.0052 2.41643,1.270178 4.48885,-0.499149 5.09845,-0.534704 5.29628,-0.328877 9.3912,0.414625 13.61111,0.871498 2.20143,0.224881 4.45679,0.381014 6.94304,0.309017 0.90118,-0.02756 -1.12442,-0.961231 1.40506,-0.984341 16.91397,-0.15555 35.07928,0.199368 51.91786,1.026006 2.51134,0.121149 0.92011,0.748854 0.9093,0.881914 0,0 0,0.0018 0,0.0018 0,0 0,0.0018 0,0.0018 0,0 0,0.0018 0,0.0018 0,0 0,0.0018 0,0.0018 0,0 0,0.0018 0,0.0018 0,0 0,0 0,0 0,0 0,0.0018 0,0.0018 0,0 0,0.0018 0,0.0018 0,0 0,0.0018 0,0.0018 2.68693,1.347509 4.33872,-0.430819 5.2587,-0.493039 6.68957,-0.449762 13.10615,1.081476 17.60982,-1.026006 16.40296,0.48265 32.77791,0.424054 48.92371,0.4045 0.12303,-9.15e-4 0.2472,-0.0025 0.37023,-0.0035 4.72758,-0.04178 9.42313,0.02343 14.08089,0.06076 7.34797,0.04711 14.5839,0.330405 21.89424,0.788166 0.35022,0.02134 -0.27742,0.902719 0.42649,0.94094 8.65263,0.464873 7.06934,-0.897038 12.71697,-2.584979 1.4676,-0.423985 5.85595,1.58414 6.23507,1.732579 1.3767,0.542202 -0.049,1.855115 0.41347,1.960001 3.8841,0.820415 3.26404,-3.509114 8.5603,-3.522448 0,7e-5 0.006,0.0016 0.007,0.0018 0,2.59e-4 0.006,0.0014 0.007,0.0018 0,0 0,0.0018 0,0.0018 0,0 0,0.0018 0,0.0018 0,0 0,0.0018 0,0.0018 0,0 0,0.0018 0,0.0018 4.8e-4,7.84e-4 0,0.0044 0,0.0052 0.04,0.11316 -0.52838,0.795917 -0.11043,0.868026 1.46981,0.246214 2.70443,-0.07234 4.0745,0.199645 3.17128,0.628423 4.12054,2.729322 8.94343,1.496476 0.62071,-0.160883 -0.32412,-2.616145 4.36021,-2.508594 1.95758,0.04534 10.26884,-0.0097 12.55895,0.145829 2.17634,0.147043 0.88392,0.864885 0.8746,0.972188 0,0 0,0.0018 0,0.0018 0,0 0,0.0018 0,0.0018 0,0 0,0.0018 0,0.0018 0,0 0,0.0018 0,0.0018 0,0 0,0.0018 0,0.0018 0,0 0,0 0,0 0,0 0,0.0018 0,0.0018 0,0 0,0 0,0 0,3.63e-4 0.006,0.0014 0.006,0.0018 6.28165,1.036409 4.00939,1.474157 7.06428,3.018992 3.10923,1.538613 2.25392,-2.142147 3.53972,-2.555466 1.33567,-0.411542 5.89704,0.44611 7.01877,0.744766 1.12729,0.298656 -0.28112,0.803305 0.72313,0.972188 6.7361,1.101295 3.01601,-1.830784 5.17641,-2.418319 3.22892,-0.889747 6.09663,-0.09414 9.04735,0.663171 1.56513,0.425763 3.15875,0.839776 4.86464,0.933995 1.28473,0.07022 0.23287,-0.5498 1.38124,-0.609353 4.65889,-0.227547 7.18737,0.621715 12.42039,-0.164924 0.8912,-0.128885 5.00093,-1.77637 7.68559,-0.574634 0.38247,0.173327 -0.70337,0.854957 1.22757,1.005174 2.92522,0.22577 8.08836,0.369098 11.17765,0.138884 2.29453,-0.170661 -0.34073,-1.288441 2.55899,-0.942675 1.29249,0.153772 -1.10597,0.812179 1.32713,1.046838 2.46851,0.235547 8.43727,0.200229 10.82044,0.175341 2.25177,-0.02477 1.15799,-0.812774 1.23622,-0.925315 0,0 0,-0.0018 0,-0.0018 0,-7.19e-4 0.006,-0.0045 0.007,-0.0052 0,-5.47e-4 0.006,-0.0012 0.006,-0.0018 1.18385,-0.329766 5.57739,-0.743919 5.97533,-0.74303 19.85693,-0.122662 38.19212,1.293594 57.53812,0.802056 1.4139,-0.03471 0.6401,-0.812891 0.7101,-0.933996 0,-9.15e-4 0.01,-0.0044 0.01,-0.0052 0,-7.19e-4 0.01,-0.0029 0.01,-0.0035 0.01,-0.0022 0.012,-0.0047 0.019,-0.0052 5.2164,-0.380432 1.1008,2.007346 4.7542,2.801985 -0.5221,-1.818604 1.6164,-1.48999 5.261,-1.69265 1.6776,-0.09488 0.8858,-0.741973 0.946,-0.864553 6e-4,-9.8e-4 0.01,-0.0044 0.01,-0.0052 0,-7.84e-4 0.01,-0.0045 0.01,-0.0052 0,-6.39e-4 0.01,-0.0012 0.01,-0.0018 2.6115,-1.071963 4.4402,0.310226 4.9101,0.591994 1.7347,1.039075 3.65,-0.19248 4.8128,0.501718 1.1726,0.688865 -1.5249,1.713857 1.9701,1.697857 0.9799,-0.652421 -1.6189,-2.351903 1.0369,-2.630115 10.0748,-1.052408 28.8305,0.268587 36.9234,0.401027 8.0829,0.131551 10.67,0.0084 15.3821,0.239575 8.4997,0.418652 5.3865,-0.84047 10.6516,-1.423561 5.2985,-0.582202 2.7251,2.525912 3.4899,3.194333 0.7427,0.667531 1.5632,-0.019 2.4831,0.34721 0.9311,0.366209 -1.0752,0.820568 1.1085,0.956563 2.1726,0.135996 8.1265,-1.057351 8.9024,-1.756883 1.6294,-1.481726 -1.053,-3.032546 4.711,-2.491232 0.3214,0.032 -0.7441,0.850484 0.5195,0.932259 10.0869,0.620423 20.5742,0.651186 30.6168,1.199611 1.3856,0.07644 0.1434,0.98741 0.9527,1.04163 8.4132,0.575091 5.4086,-0.956495 9.9978,-2.663101 -1.0198,2.267476 1.4757,3.651595 7.8826,3.659594 3.8352,0.0062 3.1809,-0.984437 5.6527,-1.683969 0.7426,-0.210659 3.4351,0.466609 3.9229,0.0018 1.6183,-1.523503 -0.9427,-3.224861 5.6526,-2.551995 0.013,0.0015 0.027,0.0073 0.036,0.01215 0.1564,0.10866 -0.614,0.857427 0.3291,0.904481 6.4513,0.324434 7.1512,-1.269594 14.1567,-1.468699 5.4425,-0.155549 15.1745,0.806306 21.3487,0.9583 -0.1552,2.548356 5.7529,1.960432 8.125,0.201383 4.0459,0.06844 8.3358,-0.03425 12.2818,0.204853 1.2679,0.0773 0.5458,0.743647 0.6128,0.88365 0,0.0054 0.011,0.0121 0.018,0.01562 2.5938,1.247068 4.3356,-0.462789 5.2002,-0.531231 9.433,-0.659533 17.1136,0.627075 26.092,-0.647548 0.3214,-0.04622 0.7985,-1.815756 3.2149,-0.526023 0,0 0,0.0018 0,0.0018 0,0 0,0.0018 0,0.0018 0,0 0,0 0,0 0,0 0,0.0018 0,0.0018 0,0 0,0.0018 0,0.0018 0,0 0,0.0018 0,0.0018 0,0 0,0.0018 0,0.0018 0,0 0,0.0018 0,0.0018 0,0 0,0.0018 0,0.0018 -0.072,0.137905 -2.6844,0.884566 1.4377,0.94094 4.2896,0.05778 12.2153,1.000242 18.1012,0.173605 1.3966,-0.198215 4.9866,-1.639888 7.913,-0.520816 0.388,0.151995 -0.032,0.660908 0.5217,0.942676 1.7957,0.897746 2.7701,-0.892302 4.843,0.624978 1.973,1.475504 6.4071,2.588105 11.905,1.677025 0.1663,-0.02578 0.3339,-0.054 0.5002,-0.08333 0.1995,-0.03111 1.6404,-1.449212 3.5137,-1.428769 2.9928,0.03289 7.1263,0.323238 10.2965,0.309017 1.3913,-0.0057 0.6684,-0.768519 0.7644,-0.888858 0,-0.0019 0.011,-0.0055 0.011,-0.0069 0.011,-0.0032 0.015,-0.0063 0.025,-0.0069 9.9873,-0.506649 17.0489,0.269339 27.7787,0.591994 1.9842,0.06133 7.5027,-1.14878 11.4266,-0.20659 4.1567,1.031075 0.2781,3.144265 9.8441,2.095413 3.9683,-0.420429 8.3357,-3.695399 15.33,-0.871498 13.4457,-0.736863 25.971,0.680504 39.4499,-0.392347 0.6207,-0.048 2.5276,-1.587084 3.9576,-1.572861 2.1171,0.024 3.2811,0.73339 4.7997,0.774278 1.84,0.05422 3.6019,0.03923 5.3865,-0.0052 4.3229,-0.109329 8.5361,-0.407652 12.8924,-0.34721 2.3277,0.03111 1.5177,0.771667 4.2779,0.808999 2.7822,0.03733 4.6228,-0.938856 8.3805,-0.472205 2.8377,0.356432 5.675,2.346932 9.4326,2.578035 0.1441,-1.963487 2.7262,-1.924419 7.3263,-2.442623 0.8869,-0.10133 -0.067,-0.784474 0.355,-0.868026 1.696,-0.351988 3.2703,0.214701 4.8886,-0.168397 0.3991,-0.09155 0.4103,-0.762084 0.7317,-0.874969 2.7378,-0.986633 7.2258,0.525065 8.0017,0.788167 2.9485,0.999965 4.346,0.128745 6.6183,0.524287 2.2613,0.394654 -1.1297,0.881456 1.5307,1.123225 5.4203,0.494205 12.4029,0.404305 17.9453,0.449637 0.044,9.15e-4 0.099,0.0025 0.1537,0.0035 2.0539,0.03114 0.9267,-0.744301 0.9893,-0.878442 0.011,-0.0094 0.021,-0.01618 0.043,-0.01736 1.6627,-0.06222 4.7217,1.027214 6.2957,1.086768 2.7822,0.104885 3.8912,-0.886066 5.5207,-2.005138 3.1481,4.646949 2.7709,-0.414959 9.344,0.586784 0.2536,0.03982 4.7649,0.594797 9.0971,1.189195 -2.346,-1.435014 -1.0062,-3.093437 5.867,-2.741224 2.0396,0.109329 -4.4015,1.102322 -1.8078,1.475642 3.4023,0.495864 5.9874,-0.553254 9.0236,-0.593728 1.1385,-0.01794 2.3215,0.07115 3.6697,0.413179 0.5875,0.147551 -1.8522,1.212236 -3.7476,1.784661 -0.8777,0.266079 4.1469,1.062785 4.3234,1.1076 V 0.00100885 Z"
     style="font-variation-settings:'wght' 600;fill:#fffded;fill-opacity:1;stroke-width:5.34803;stroke-linecap:square;paint-order:fill markers stroke"
     id="path4" />
  <path
     d="m 44.365093,27.993816 c 2.836436,0.0027 1.408519,0.619534 3.404743,0.654199 3.86298,0.07555 7.321149,-0.286212 11.097447,-0.111107 1.238038,0.06222 -0.294739,0.975966 1.014353,1.021298 7.180041,0.243547 13.919694,-0.05955 21.110043,0.06933 24.231911,0.447984 48.013011,0.897746 72.331481,1.348398 11.099,0.212436 22.6957,0.41243 34.00864,0.616867 11.80175,0.212437 26.29153,1.110183 38.46684,0.841749 1.42658,-0.03289 0.57973,-0.812417 0.8513,-0.874637 4.27754,-0.948411 2.85095,0.605312 5.65868,0.831971 10.98039,0.893302 23.27099,1.046186 33.95099,0.818638 4.49037,-0.100441 -0.0101,-1.668386 4.51918,-0.775084 0.31481,0.06133 -0.83245,0.874636 0.40349,0.970633 2.79442,0.215992 8.18375,0.103997 10.35744,0.183993 4.16891,0.15644 4.8628,0.152884 8.83774,0.188438 5.47468,0.056 11.87713,0.506649 17.72204,0.359099 1.24702,-0.03467 -0.40015,-0.887969 1.59064,-1.018631 2.00631,-0.129773 7.24378,-0.024 9.00623,0.185771 1.76688,0.210659 1.01091,0.868414 1.3235,1.022186 2.56497,1.298622 8.66815,-0.436428 9.45627,-0.475538 14.21929,-0.655088 26.46667,0.43554 39.84244,0.519093 10.1557,0.06133 21.01748,-0.20266 30.68547,-0.09511 11.51023,0.13244 21.2813,0.651533 32.45234,0.644422 1.1783,0 -0.19841,-0.999965 1.24148,-1.001743 15.34994,-0.01777 30.49593,0.187549 45.78933,0.952855 1.52635,0.07733 -0.44339,0.935079 1.07964,1.063964 9.35872,0.774195 24.13558,2.584799 29.73441,-1.16796 6.28607,0.187549 14.0608,0.388431 19.68845,1.187515 3.63352,0.513759 0.0887,1.439061 4.56907,1.063074 1.02199,-0.08444 -0.30261,-0.921746 1.23038,-0.984855 6.47673,-0.263991 13.30595,0.04889 19.73389,-0.339544 1.29026,-0.08178 0.94108,-0.827526 1.30688,-0.959966 3.08705,-1.064852 8.08621,0.758196 9.23457,0.89508 8.56729,1.024853 14.625,0.679976 22.57931,0.751973 1.82342,0.01689 -0.32588,-0.994632 1.42548,-1.014186 9.10823,-0.088 18.56004,0.05511 27.54963,0.552869 1.97197,0.111996 0.15517,0.951967 1.0963,1.049742 4.0902,0.418652 5.14547,-1.181293 9.16693,-0.810639 0.84909,0.07644 0.36801,0.802639 0.5221,0.883525 2.41644,1.270178 4.49035,-0.497761 5.10001,-0.533315 5.29621,-0.328877 9.39083,0.414208 13.61075,0.871081 2.20143,0.224881 4.45714,0.380431 6.9434,0.308433 0.90118,-0.02755 -1.12401,-0.961744 1.40554,-0.984854 16.91397,-0.15555 35.07825,0.199993 51.91685,1.026631 2.63484,0.127106 0.75264,0.809749 0.91891,0.895969 2.68692,1.347508 4.3374,-0.431097 5.25745,-0.493316 6.68956,-0.449762 13.10643,1.08085 17.6101,-1.026632 16.40297,0.482651 32.77823,0.424874 48.92401,0.40532 0.12304,-9.15e-4 0.24721,-0.0027 0.37024,-0.0035 4.72757,-0.04177 9.42188,0.02311 14.07963,0.06044 7.34798,0.04711 14.58515,0.330655 21.89543,0.788417 0.35022,0.02134 -0.27825,0.90308 0.42566,0.9413 8.65258,0.464873 7.06971,-0.896857 12.71733,-2.584798 1.4676,-0.423986 5.85601,1.583945 6.23507,1.732384 1.3767,0.542203 -0.049,1.854158 0.41347,1.959043 3.88404,0.820415 3.2644,-3.508323 8.56061,-3.521655 0.1674,0.0089 -0.53979,0.805305 -0.0865,0.883524 1.46986,0.246214 2.70358,-0.07289 4.07359,0.199104 3.17134,0.628423 4.12125,2.729683 8.94416,1.496838 0.62076,-0.160884 -0.32365,-2.615021 4.36068,-2.507469 1.95758,0.04533 10.26878,-0.01066 12.55883,0.144884 2.30231,0.15555 0.72272,0.9493 0.88678,0.983966 6.28165,1.036408 4.00928,1.474615 7.06422,3.01945 3.10923,1.538613 2.25351,-2.141259 3.53931,-2.554578 1.33566,-0.411541 5.89697,0.445318 7.01876,0.743975 1.1273,0.298656 -0.27933,0.803527 0.72493,0.97241 6.7361,1.101295 3.01613,-1.831048 5.17652,-2.418582 3.22893,-0.889747 6.09538,-0.09422 9.04611,0.663087 1.56513,0.425764 3.15802,0.839082 4.86392,0.933301 1.28473,0.07022 0.23387,-0.549314 1.38225,-0.608867 4.65883,-0.227548 7.18839,0.621311 12.42141,-0.165328 0.8912,-0.128884 5.00021,-1.775049 7.68493,-0.573313 0.3824,0.173327 -0.70277,0.855081 1.22816,1.005298 2.92523,0.22577 8.08842,0.368876 11.17771,0.138662 2.29454,-0.170661 -0.34251,-1.289733 2.55721,-0.943967 1.29248,0.153772 -1.10513,0.812416 1.32795,1.047074 2.46853,0.235548 8.43645,0.199993 10.81967,0.175105 2.34328,-0.02578 1.0619,-0.874636 1.25033,-0.932411 1.18385,-0.329767 5.57774,-0.744863 5.97568,-0.743974 19.85693,-0.122663 38.19199,1.294177 57.53799,0.802638 1.5207,-0.03733 0.5076,-0.932412 0.7393,-0.947522 5.2163,-0.380431 1.1018,2.007041 4.7553,2.80168 -0.5222,-1.818604 1.615,-1.490615 5.2596,-1.693275 1.7602,-0.09955 0.8014,-0.804416 0.961,-0.876413 2.6115,-1.071963 4.4416,0.309322 4.9116,0.59109 1.7347,1.039075 3.6502,-0.191104 4.813,0.503094 1.1727,0.688865 -1.5264,1.713718 1.9686,1.697718 0.9798,-0.652422 -1.6173,-2.351918 1.0385,-2.63013 10.0749,-1.052408 28.83,0.267546 36.9229,0.399986 8.0828,0.131551 10.6699,0.0098 15.382,0.24088 8.4997,0.418652 5.385,-0.841748 10.6501,-1.424839 5.2984,-0.582202 2.7268,2.526134 3.4916,3.194555 0.7427,0.667533 1.5629,-0.01956 2.4831,0.346655 0.9311,0.366209 -1.0753,0.821304 1.1083,0.9573 2.1726,0.135995 8.1251,-1.056852 8.901,-1.756383 1.6294,-1.481726 -1.053,-3.032784 4.7109,-2.491469 0.3216,0.032 -0.7427,0.850637 0.521,0.932412 10.087,0.620422 20.573,0.650644 30.6156,1.199069 1.3856,0.07644 0.1441,0.987521 0.9533,1.041742 8.4132,0.575091 5.4093,-0.956412 9.9983,-2.663018 -1.0198,2.267476 1.4743,3.651428 7.8812,3.659428 3.8352,0.0062 3.1813,-0.983966 5.6531,-1.683498 0.7426,-0.210659 3.4362,0.466651 3.924,0.0018 1.6183,-1.523503 -0.9422,-3.224777 5.6531,-2.551912 0.2881,0.032 -0.6318,0.865748 0.3657,0.915524 6.4513,0.324433 7.1496,-1.2684 14.1551,-1.467504 5.4426,-0.15555 15.1748,0.806194 21.3489,0.958188 -0.1551,2.548356 5.7529,1.959932 8.125,0.200882 4.0459,0.06844 8.3356,-0.03466 12.2817,0.204438 1.3413,0.08178 0.4545,0.820415 0.6319,0.900413 2.5938,1.247067 4.334,-0.463095 5.1986,-0.531537 9.433,-0.659533 17.1147,0.627533 26.0932,-0.647089 0.3214,-0.04622 0.798,-1.815937 3.2145,-0.526204 0.1551,0.08977 -2.8488,0.895969 1.441,0.954634 4.2897,0.05778 12.2152,0.999076 18.1012,0.172438 1.3966,-0.198215 4.988,-1.639054 7.9143,-0.519982 0.388,0.151995 -0.033,0.660421 0.521,0.94219 1.7957,0.897746 2.7711,-0.892414 4.8439,0.624867 1.9731,1.475504 6.407,2.588354 11.9049,1.677274 0.1663,-0.02578 0.3325,-0.05333 0.4988,-0.08266 0.1996,-0.03111 1.6405,-1.449727 3.5138,-1.429284 2.9929,0.03289 7.1275,0.322656 10.2976,0.308434 1.4965,-0.0062 0.5431,-0.884414 0.7981,-0.901302 9.9873,-0.506649 17.0481,0.268435 27.778,0.591091 1.9842,0.06133 7.5043,-1.149294 11.4282,-0.207104 4.1567,1.031075 0.2771,3.144779 9.8431,2.095927 3.9683,-0.42043 8.3356,-3.695872 15.33,-0.87197 13.4456,-0.736863 25.9712,0.680865 39.4501,-0.391986 0.6207,-0.048 2.5272,-1.5875 3.9572,-1.573279 2.1172,0.024 3.281,0.733308 4.7996,0.774195 1.8401,0.05422 3.6025,0.04089 5.3871,-0.0035 4.323,-0.109329 8.5352,-0.407986 12.8914,-0.347543 2.3277,0.03111 1.5185,0.771528 4.2787,0.80886 2.7821,0.03733 4.6221,-0.938634 8.3799,-0.471983 2.8376,0.356431 5.6752,2.345696 9.4329,2.576798 0.1441,-1.963487 2.7268,-1.923488 7.3269,-2.441692 0.8869,-0.10133 -0.067,-0.783972 0.3548,-0.867525 1.6959,-0.351988 3.2699,0.214214 4.8883,-0.168884 0.399,-0.09155 0.4101,-0.762639 0.7316,-0.875524 2.7378,-0.986633 7.2271,0.525315 8.0031,0.788417 2.9484,0.999965 4.3451,0.127995 6.6174,0.523537 2.2613,0.394653 -1.1307,0.882636 1.5296,1.124405 5.4205,0.494205 12.4037,0.40443 17.9461,0.449762 0.044,9.15e-4 0.1,0.0018 0.1551,0.0027 2.2281,0.03378 0.7094,-0.878192 1.0309,-0.89508 1.6627,-0.06222 4.722,1.026631 6.296,1.086184 2.7822,0.104886 3.8907,-0.88619 5.5202,-2.005263 3.148,4.64695 2.7712,-0.415096 9.3443,0.586646 0.521,0.08178 18.999,2.341252 17.0037,2.637242 -1.9952,0.295989 -22.1802,-0.02222 -24.9403,0.444429 -0.665,0.109329 -5.0656,1.636387 -5.5866,1.754605 -1.2083,0.276435 -2.0839,0.175105 -2.7601,-0.107552 -1.5408,-0.657754 -0.5431,-1.017742 -1.4632,-1.343953 -1.0862,-0.88708 -2.0284,-0.532426 -3.4916,-0.3031 -1.7403,0.292434 -4.5336,-0.488872 -5.2097,-0.407986 -5.498,0.683532 -10.1757,0.218659 -14.7979,0.711086 -3.004,0.318211 -3.3033,2.452359 -5.6755,2.384806 -7.87,-0.221325 -10.6078,-3.198999 -18.0234,-0.617756 -1.5851,0.550203 -0.011,2.881677 -5.7086,1.049741 -0.3547,-0.115551 -4.589,-1.792827 -7.0276,-0.729753 -0.2993,0.134218 -0.2993,0.815084 -0.6983,0.87197 -2.7047,0.371543 -4.5336,-0.168883 -7.4711,0.09422 -2.9595,0.262213 -6.5067,0.6542 -9.8763,0.430208 -2.0617,-0.133329 -4.6334,-1.39373 -5.631,-1.701274 -1.1085,-0.362655 -2.2945,-0.328878 -3.3586,-0.237326 -1.5962,0.13244 -3.015,0.385765 -4.0237,-0.24888 -1.7181,-1.079962 1.6515,-0.300434 -2.8377,-0.983077 -0.1552,1.766161 -0.5653,1.13596 -0.8313,2.912788 -9.832,-0.01422 -19.5643,-0.538648 -29.4518,-0.430207 -1.2082,0.01511 0.033,0.959966 -1.2747,1.000853 -5.5423,0.167995 -10.3863,-0.495983 -16.1392,-0.212436 -4.5669,0.223102 -9.2667,1.239068 -14.033,1.50128 -2.7713,-2.015041 -9.7212,-1.315509 -14.7537,-1.491503 -1.7292,-0.06044 -1.6183,-0.599979 -2.882,-0.774196 -4.8218,-0.642644 -2.5383,1.137739 -3.8242,1.421284 -5.4757,1.207958 -6.041,-2.83279 -12.5477,-2.722571 -0.388,0.0062 -4.6001,2.165257 -5.1654,2.300364 -3.6911,0.879969 -0.5986,-0.749307 -2.9375,-0.905746 -4.4227,-0.284435 -7.0386,-0.795528 -12.204,-0.157328 -1.43,0.188438 -4.8218,1.535057 -7.6928,0.500427 -0.3769,-0.135995 -0.1773,-0.84797 -0.4766,-0.888858 -0.7649,-0.09511 -1.4299,-0.135106 -2.0064,-0.129774 -3.4472,0.032 -3.9349,1.783939 -6.5952,2.439915 -3.1702,0.761752 -7.8479,-0.778639 -8.8234,-1.223068 -2.5272,-1.147516 1.9398,-0.494205 2.0618,-0.606201 1.5961,-1.347508 -1.8179,-1.111961 -4.5004,-1.222179 -0.388,-2.193702 -4.1678,-2.058596 -2.7934,-0.106663 0.1553,0.213326 2.2503,0.0071 2.7934,0.106663 -2.3943,2.15548 -6.4068,2.43547 -10.9183,0.428429 -2.106,-0.940412 -0.1662,-2.042596 -6.551,-1.633721 -2.882,0.183994 -1.7625,1.695052 -4.323,2.10926 -5.9745,0.945745 -13.4455,-0.455984 -19.5754,-0.228436 -2.1725,0.08266 -0.055,0.907523 -1.5407,0.992853 -3.9351,0.228437 -7.5043,-0.389319 -11.4948,-0.06844 -0.3658,0.03022 0.5099,0.895969 -0.7204,0.908413 -9.3887,0.109329 -17.6023,-0.437319 -27.4565,-0.443541 -4.7111,-0.0035 -13.2905,0.480872 -18.1677,0.38932 -8.5795,-0.153773 -19.0434,-1.402618 -26.337,-1.091518 -4.7442,0.199994 -3.7023,1.063964 -5.7418,1.655943 -3.9573,1.146626 -10.8851,-0.89508 -11.8273,-1.211514 0.055,-0.01511 4.0349,-0.223102 1.8733,-0.660421 -1.2636,-0.921746 -1.8289,0.644422 -1.8733,0.660421 -0.6096,-0.204437 -8.8123,-0.393764 -10.4195,-0.227547 -0.8868,0.09155 -0.3879,0.911968 -0.8424,0.943967 -10.9294,0.743085 -21.8921,0.960855 -32.9656,0.585758 -0.1996,-0.016 0.089,-0.93419 -0.3658,-0.961745 -6.4179,-0.402652 -10.5303,0.723531 -15.8177,1.394618 -5.2918,0.670199 -9.4906,0.450651 -12.6276,-1.122628 -3.9982,0.201771 -9.7057,-0.488871 -13.0187,-0.909301 -3.3011,-0.419541 -3.7588,1.366175 -4.0493,1.401729 -9.0151,1.137738 -14.2925,0.120884 -23.6556,-0.03022 -4.4981,-0.07555 -13.2805,0.191104 -18.1576,0.391097 -3.8264,0.159995 -6.0999,-0.255991 -9.6159,0.01511 -0.4789,0.03644 0.01,0.829304 -0.1408,0.861303 -3.9506,0.955523 -2.054,-0.990188 -2.8676,-1.336842 -2.9485,-1.260401 -4.7742,-1.932377 -9.7645,-1.334175 -1.1505,0.137773 -4.569,2.940341 -6.6806,3.105669 -2.7479,0.21066 -1.7137,-0.79375 -4.5791,-0.548425 -0.2438,0.02045 -0.195,0.6382 -1.9564,0.613311 -8.29346,-0.111107 -17.27422,-0.463094 -25.81489,-0.392875 -1.1572,0.008 0.327,0.987521 -1.34456,1.014187 -8.00421,0.12444 -16.69226,0.09689 -24.37499,-0.354654 -1.87443,-0.114662 -0.70056,-0.803527 -1.1074,-1.007076 -2.55941,-1.231957 -6.19183,0.565314 -6.77599,0.599979 -13.80031,0.854192 -24.34728,-0.650644 -38.21191,-9.14e-4 -0.38797,0.01778 -0.77701,0.03644 -1.16719,0.05778 -0.85131,0.04711 -6.83142,1.977709 -9.52055,0.331544 -0.19063,-0.10933 -2.92301,-1.793715 -5.24746,-0.637311 -0.14299,0.07289 1.49088,0.940412 -1.36232,0.85597 -2.85869,-0.08444 -7.5896,0.502205 -11.55677,-0.446206 -1.32241,-0.298657 -4.21437,-1.979487 -8.01413,-0.63109 -0.33368,0.09422 -5.91697,3.139447 -8.14499,1.048853 -0.32256,-0.344877 -0.052,-2.5608 -4.43713,-1.41684 -0.84689,0.221326 0.73711,0.712864 -1.58735,1.025742 -3.50269,0.481761 -8.08507,-0.102218 -12.31605,0.894192 -0.82138,0.175993 -3.78321,1.686163 -6.4579,0.551091 -0.3968,-0.17866 0.35136,-0.919079 -0.98317,-0.999076 -6.39692,-0.382209 -12.95349,0.130662 -19.4956,-0.359099 -2.30672,-0.171549 -1.04971,-1.372397 -3.51273,-1.683496 -2.36542,-0.31199 -7.20719,-0.599979 -9.67684,-0.03822 -2.50513,0.561759 0.2472,2.449693 -3.48054,2.628353 -2.20363,0.104886 -4.272,0.183105 -6.46011,0.254214 -4.78413,0.138661 -9.47844,0.07911 -14.073,0.04711 -0.1197,-9.15e-4 -0.24272,-9.15e-4 -0.36689,-9.15e-4 -9.39866,-0.10133 -18.51792,-0.587535 -27.79682,-0.703087 -2.47741,-0.03378 -0.43449,0.656866 -3.96609,0.655089 -13.19949,-9.15e-4 -35.7999,0.522648 -47.08291,-0.988411 -9.21129,-1.210624 2.44194,-2.03104 -4.66324,-2.541244 -3.25001,-0.243547 -6.94675,1.951932 -7.78808,2.016818 -7.8512,0.664866 -13.31923,-0.346654 -20.57738,-0.08711 -1.43325,0.05422 -0.0286,0.959966 -1.25366,0.996409 -4.15452,0.131551 -8.89984,-0.295101 -12.83601,-0.245324 -1.82451,0.02489 -1.49083,0.711974 -3.18902,0.648866 -1.37228,-0.048 -2.70574,-0.114663 -4.03036,-0.207104 -2.4641,-0.183105 -4.88829,-0.468429 -7.51645,-0.91108 -0.36133,-0.06044 2.0806,-0.899524 -0.93223,-0.948411 -5.03683,-0.07911 -10.70882,-0.74753 -16.47499,-0.127107 -1.63501,0.187549 -1.68267,1.754606 -5.20424,0.651533 -0.74487,-0.231103 0.22833,-2.107482 -3.93282,-0.50576 -0.72601,0.266657 -7.67603,2.418582 -11.05355,0.983966 -0.89562,-0.377765 -3.19016,-1.932377 -5.2042,-1.703052 -0.27379,0.03733 0.8158,0.886191 -0.85351,0.958189 -5.76288,0.239103 -11.86716,0.111996 -17.83621,0.339544 -1.57512,0.06222 0.76816,0.947522 -1.58178,1.013297 -6.48558,0.180438 -14.67932,-0.09244 -21.03301,-0.40443 -2.36101,-0.11644 -0.72604,-0.828415 -0.89785,-0.907524 -2.75562,-1.295066 -4.42607,0.418652 -5.33169,0.51376 -5.62209,0.56798 -9.95063,-0.269324 -15.24019,-0.088 -1.43879,0.048 -0.42343,0.877303 -0.70941,0.948412 -2.9596,0.697753 -0.75043,-0.765307 -2.62373,-0.939523 -5.23193,-0.493316 -11.24642,-0.464873 -16.53156,-0.392875 -1.95643,0.02755 0.23832,0.994631 -1.51859,1.007965 -10.45166,0.09955 -21.28019,-0.05955 -31.4758,-0.649756 -1.91098,-0.112885 -0.70497,-0.83997 -1.10291,-1.010631 -2.74012,-1.190181 -6.7882,0.383987 -7.72153,0.530648 -4.24429,0.66931 -5.87594,0.01066 -9.59703,0.108441 -18.23969,0.487094 -40.72368,-0.08622 -57.92474,-0.462206 -22.41526,-0.486206 -39.8103,-1.296844 -61.18139,-1.254179 -1.36118,0.0018 0.007,0.987521 -1.1661,1.001743 -15.07172,0.137773 -30.04921,-0.34221 -45.13201,-0.159106 -1.24148,0.01333 0.55201,0.950189 -1.45763,1.002632 -4.12568,0.113774 -9.31327,0.03022 -13.41789,-0.292434 -2.00077,-0.15555 0.68724,-0.932412 -1.32683,-1.072851 -4.76193,-0.329767 -9.85419,-0.429319 -14.66934,-0.312879 -2.04844,0.05156 1.03641,1.01952 -1.62501,1.012409 -18.33501,-0.02667 -36.33306,0.016 -54.83324,-1.334175 -1.26143,-0.09333 -2.36212,-2.024818 -5.01466,-1.67372 -0.20285,0.532426 -0.19288,1.160849 -0.28599,1.731496 -17.21436,0.08177 -34.31789,-0.239992 -51.40479,-0.558204 -9.65689,-0.175993 -18.72076,-0.333321 -28.38984,-0.399985 -1.10735,-0.008 0.80031,1.017742 -1.33681,1.008853 -12.60538,-0.04978 -24.810627,0.230214 -37.758534,-0.704864 -1.293902,-0.09066 -0.546916,-1.89149 -4.375751,-1.591944 -0.718839,0.05422 -6.307467,0.343988 -7.815081,0.752862 -0.193423,0.06222 0.826581,0.88708 -0.968903,0.932412 -10.627018,0.270213 -21.724907,0.222214 -32.109061,0.321767 -1.61436,0.02311 0.109737,-0.986633 -1.113891,-0.970633 -1.021888,0.01155 -2.171359,0.06489 -3.173074,0.148439 -0.47309,0.03911 -1.00371,0.09689 -1.471148,0.16355 -0.237875,0.032 -0.488497,0.07466 -0.926671,0.135995 -0.448039,0.06489 -1.11389,0.111996 -1.615246,0.10133 C 25.677787,45.993189 18.845689,46.266068 12.703275,45.6812 7.1442988,45.15144 5.671999,45.018112 2.705752,43.503498 2.2892042,43.29195 2.395317,41.835111 2.2088076,40.948031 1.7640829,38.724998 3.4438415,36.303749 2.7619952,33.933165 2.5575732,33.437182 -1.7328057,33.900277 0.79496839,32.721651 0.96651348,32.648765 4.2460886,32.258557 5.0711146,31.838127 c 0.5697589,-0.288879 -0.4575275,-1.187515 0.7069197,-1.55639 1.1630726,-0.369766 2.4410706,0.382208 4.3659977,-0.05689 1.933297,-0.445318 1.072357,-1.463949 4.93323,-1.599055 5.157105,-0.171549 11.18302,-0.188438 17.233432,-0.02222 0.539487,-0.072 1.70093,-0.222214 2.320004,-0.268434 1.234934,-0.111997 2.402252,-0.175106 3.490206,-0.221327 2.197408,-0.08977 4.341833,-0.119107 6.244169,-0.119995 z M 1072.3564,44.178141 c -3.0582,-0.855081 -3.5061,2.287031 -0.2006,1.532391 0.1607,-0.04089 0.358,-1.490615 0.2006,-1.532391 z m 369.2842,-0.947523 c -3.9905,-1.370619 -6.684,0.675532 -3.8796,1.73594 2.8266,1.05863 5.11,-1.320843 3.8796,-1.73594 z m 82.414,-2.279032 c -1.4411,-0.603534 -5.6421,0.08978 -3.8354,0.839972 1.4521,0.603534 5.6532,-0.08889 3.8354,-0.839972 z m -610.96598,0.024 c -0.0555,-0.04622 -1.80899,-0.08533 -1.7713,0.178661 0.11526,0.851526 2.57052,0.607978 1.7713,-0.178661 z m 678.03878,1.639054 c -10.2754,-0.407097 -13.8336,-5.208707 -2.5939,-4.632727 2.0396,0.109329 -4.4005,1.102183 -1.8067,1.475504 3.4029,0.495983 5.9857,-0.553759 9.0229,-0.593757 h -0.011 c 1.1417,-0.01867 2.3278,0.07022 3.6801,0.413319 0.5875,0.14755 -1.8511,1.211513 -3.7466,1.783937 -0.9089,0.275547 4.5115,1.119961 4.323,1.109295 -0.4545,1.077296 -8.8788,0.446207 -8.8677,0.444429 z m -520.5335,-2.2097 c -0.061,-0.04089 -2.5006,-0.07911 -2.5693,-0.03822 -1.3269,0.999076 3.608,1.075518 2.5693,0.03822 z M 809.8944,39.242313 c -0.16514,-0.08889 -5.83821,-0.143106 -6.00448,-0.05867 -2.94189,1.645275 8.50076,1.75816 6.00448,0.05867 z m 425.6948,-1.2764 c 2.6159,-1.005298 5.897,-1.125294 8.0142,0.13244 -2.6382,-0.06489 -5.3983,-0.07289 -8.0142,-0.13244 z"
     fill="#0a3641"
     id="path64"
     style="stroke-width:0.999999" />
  <defs
     id="defs131">
    <filter
       id="filter0_d_79_212"
       x="223.82401"
       y="111.255"
       width="16.156601"
       height="8.3823204"
       filterUnits="userSpaceOnUse"
       color-interpolation-filters="sRGB">
      <feFlood
         flood-opacity="0"
         result="BackgroundImageFix"
         id="feFlood111" />
      <feColorMatrix
         in="SourceAlpha"
         type="matrix"
         values="0 0 0 0 0 0 0 0 0 0 0 0 0 0 0 0 0 0 127 0"
         result="hardAlpha"
         id="feColorMatrix111" />
      <feOffset
         dy="4"
         id="feOffset111" />
      <feGaussianBlur
         stdDeviation="2"
         id="feGaussianBlur111" />
      <feComposite
         in2="hardAlpha"
         operator="out"
         id="feComposite111" />
      <feColorMatrix
         type="matrix"
         values="0 0 0 0 0 0 0 0 0 0 0 0 0 0 0 0 0 0 0.25 0"
         id="feColorMatrix112" />
      <feBlend
         mode="normal"
         in2="BackgroundImageFix"
         result="effect1_dropShadow_79_212"
         id="feBlend112" />
      <feBlend
         mode="normal"
         in="SourceGraphic"
         in2="effect1_dropShadow_79_212"
         result="shape"
         id="feBlend113" />
    </filter>
    <filter
       id="filter1_d_79_212"
       x="17.3771"
       y="111.209"
       width="16.028299"
       height="8.4279404"
       filterUnits="userSpaceOnUse"
       color-interpolation-filters="sRGB">
      <feFlood
         flood-opacity="0"
         result="BackgroundImageFix"
         id="feFlood113" />
      <feColorMatrix
         in="SourceAlpha"
         type="matrix"
         values="0 0 0 0 0 0 0 0 0 0 0 0 0 0 0 0 0 0 127 0"
         result="hardAlpha"
         id="feColorMatrix113" />
      <feOffset
         dy="4"
         id="feOffset113" />
      <feGaussianBlur
         stdDeviation="2"
         id="feGaussianBlur113" />
      <feComposite
         in2="hardAlpha"
         operator="out"
         id="feComposite113" />
      <feColorMatrix
         type="matrix"
         values="0 0 0 0 0 0 0 0 0 0 0 0 0 0 0 0 0 0 0.25 0"
         id="feColorMatrix114" />
      <feBlend
         mode="normal"
         in2="BackgroundImageFix"
         result="effect1_dropShadow_79_212"
         id="feBlend114" />
      <feBlend
         mode="normal"
         in="SourceGraphic"
         in2="effect1_dropShadow_79_212"
         result="shape"
         id="feBlend115" />
    </filter>
    <filter
       id="filter2_d_79_212"
       x="25.313999"
       y="111.255"
       width="12.2543"
       height="8.2185402"
       filterUnits="userSpaceOnUse"
       color-interpolation-filters="sRGB">
      <feFlood
         flood-opacity="0"
         result="BackgroundImageFix"
         id="feFlood115" />
      <feColorMatrix
         in="SourceAlpha"
         type="matrix"
         values="0 0 0 0 0 0 0 0 0 0 0 0 0 0 0 0 0 0 127 0"
         result="hardAlpha"
         id="feColorMatrix115" />
      <feOffset
         dy="4"
         id="feOffset115" />
      <feGaussianBlur
         stdDeviation="2"
         id="feGaussianBlur115" />
      <feComposite
         in2="hardAlpha"
         operator="out"
         id="feComposite115" />
      <feColorMatrix
         type="matrix"
         values="0 0 0 0 0 0 0 0 0 0 0 0 0 0 0 0 0 0 0.25 0"
         id="feColorMatrix116" />
      <feBlend
         mode="normal"
         in2="BackgroundImageFix"
         result="effect1_dropShadow_79_212"
         id="feBlend116" />
      <feBlend
         mode="normal"
         in="SourceGraphic"
         in2="effect1_dropShadow_79_212"
         result="shape"
         id="feBlend117" />
    </filter>
    <filter
       id="filter3_d_79_212"
       x="225.69701"
       y="111.423"
       width="10.3551"
       height="8.2167997"
       filterUnits="userSpaceOnUse"
       color-interpolation-filters="sRGB">
      <feFlood
         flood-opacity="0"
         result="BackgroundImageFix"
         id="feFlood117" />
      <feColorMatrix
         in="SourceAlpha"
         type="matrix"
         values="0 0 0 0 0 0 0 0 0 0 0 0 0 0 0 0 0 0 127 0"
         result="hardAlpha"
         id="feColorMatrix117" />
      <feOffset
         dy="4"
         id="feOffset117" />
      <feGaussianBlur
         stdDeviation="2"
         id="feGaussianBlur117" />
      <feComposite
         in2="hardAlpha"
         operator="out"
         id="feComposite117" />
      <feColorMatrix
         type="matrix"
         values="0 0 0 0 0 0 0 0 0 0 0 0 0 0 0 0 0 0 0.25 0"
         id="feColorMatrix118" />
      <feBlend
         mode="normal"
         in2="BackgroundImageFix"
         result="effect1_dropShadow_79_212"
         id="feBlend118" />
      <feBlend
         mode="normal"
         in="SourceGraphic"
         in2="effect1_dropShadow_79_212"
         result="shape"
         id="feBlend119" />
    </filter>
    <filter
       id="filter4_d_79_212"
       x="21.3479"
       y="111.423"
       width="10.3574"
       height="8.2167997"
       filterUnits="userSpaceOnUse"
       color-interpolation-filters="sRGB">
      <feFlood
         flood-opacity="0"
         result="BackgroundImageFix"
         id="feFlood119" />
      <feColorMatrix
         in="SourceAlpha"
         type="matrix"
         values="0 0 0 0 0 0 0 0 0 0 0 0 0 0 0 0 0 0 127 0"
         result="hardAlpha"
         id="feColorMatrix119" />
      <feOffset
         dy="4"
         id="feOffset119" />
      <feGaussianBlur
         stdDeviation="2"
         id="feGaussianBlur119" />
      <feComposite
         in2="hardAlpha"
         operator="out"
         id="feComposite119" />
      <feColorMatrix
         type="matrix"
         values="0 0 0 0 0 0 0 0 0 0 0 0 0 0 0 0 0 0 0.25 0"
         id="feColorMatrix120" />
      <feBlend
         mode="normal"
         in2="BackgroundImageFix"
         result="effect1_dropShadow_79_212"
         id="feBlend120" />
      <feBlend
         mode="normal"
         in="SourceGraphic"
         in2="effect1_dropShadow_79_212"
         result="shape"
         id="feBlend121" />
    </filter>
    <filter
       id="filter5_d_79_212"
       x="1731.49"
       y="66.3405"
       width="12.1536"
       height="8.1936102"
       filterUnits="userSpaceOnUse"
       color-interpolation-filters="sRGB">
      <feFlood
         flood-opacity="0"
         result="BackgroundImageFix"
         id="feFlood121" />
      <feColorMatrix
         in="SourceAlpha"
         type="matrix"
         values="0 0 0 0 0 0 0 0 0 0 0 0 0 0 0 0 0 0 127 0"
         result="hardAlpha"
         id="feColorMatrix121" />
      <feOffset
         dy="4"
         id="feOffset121" />
      <feGaussianBlur
         stdDeviation="2"
         id="feGaussianBlur121" />
      <feComposite
         in2="hardAlpha"
         operator="out"
         id="feComposite121" />
      <feColorMatrix
         type="matrix"
         values="0 0 0 0 0 0 0 0 0 0 0 0 0 0 0 0 0 0 0.25 0"
         id="feColorMatrix122" />
      <feBlend
         mode="normal"
         in2="BackgroundImageFix"
         result="effect1_dropShadow_79_212"
         id="feBlend122" />
      <feBlend
         mode="normal"
         in="SourceGraphic"
         in2="effect1_dropShadow_79_212"
         result="shape"
         id="feBlend123" />
    </filter>
    <filter
       id="filter6_d_79_212"
       x="1626.36"
       y="66.317398"
       width="12.0883"
       height="8.2167101"
       filterUnits="userSpaceOnUse"
       color-interpolation-filters="sRGB">
      <feFlood
         flood-opacity="0"
         result="BackgroundImageFix"
         id="feFlood123" />
      <feColorMatrix
         in="SourceAlpha"
         type="matrix"
         values="0 0 0 0 0 0 0 0 0 0 0 0 0 0 0 0 0 0 127 0"
         result="hardAlpha"
         id="feColorMatrix123" />
      <feOffset
         dy="4"
         id="feOffset123" />
      <feGaussianBlur
         stdDeviation="2"
         id="feGaussianBlur123" />
      <feComposite
         in2="hardAlpha"
         operator="out"
         id="feComposite123" />
      <feColorMatrix
         type="matrix"
         values="0 0 0 0 0 0 0 0 0 0 0 0 0 0 0 0 0 0 0.25 0"
         id="feColorMatrix124" />
      <feBlend
         mode="normal"
         in2="BackgroundImageFix"
         result="effect1_dropShadow_79_212"
         id="feBlend124" />
      <feBlend
         mode="normal"
         in="SourceGraphic"
         in2="effect1_dropShadow_79_212"
         result="shape"
         id="feBlend125" />
    </filter>
    <filter
       id="filter7_d_79_212"
       x="1630.4"
       y="66.3405"
       width="10.1664"
       height="8.1106701"
       filterUnits="userSpaceOnUse"
       color-interpolation-filters="sRGB">
      <feFlood
         flood-opacity="0"
         result="BackgroundImageFix"
         id="feFlood125" />
      <feColorMatrix
         in="SourceAlpha"
         type="matrix"
         values="0 0 0 0 0 0 0 0 0 0 0 0 0 0 0 0 0 0 127 0"
         result="hardAlpha"
         id="feColorMatrix125" />
      <feOffset
         dy="4"
         id="feOffset125" />
      <feGaussianBlur
         stdDeviation="2"
         id="feGaussianBlur125" />
      <feComposite
         in2="hardAlpha"
         operator="out"
         id="feComposite125" />
      <feColorMatrix
         type="matrix"
         values="0 0 0 0 0 0 0 0 0 0 0 0 0 0 0 0 0 0 0.25 0"
         id="feColorMatrix126" />
      <feBlend
         mode="normal"
         in2="BackgroundImageFix"
         result="effect1_dropShadow_79_212"
         id="feBlend126" />
      <feBlend
         mode="normal"
         in="SourceGraphic"
         in2="effect1_dropShadow_79_212"
         result="shape"
         id="feBlend127" />
    </filter>
    <filter
       id="filter8_d_79_212"
       x="1732.4399"
       y="66.425499"
       width="9.1992197"
       height="8.1097898"
       filterUnits="userSpaceOnUse"
       color-interpolation-filters="sRGB">
      <feFlood
         flood-opacity="0"
         result="BackgroundImageFix"
         id="feFlood127" />
      <feColorMatrix
         in="SourceAlpha"
         type="matrix"
         values="0 0 0 0 0 0 0 0 0 0 0 0 0 0 0 0 0 0 127 0"
         result="hardAlpha"
         id="feColorMatrix127" />
      <feOffset
         dy="4"
         id="feOffset127" />
      <feGaussianBlur
         stdDeviation="2"
         id="feGaussianBlur127" />
      <feComposite
         in2="hardAlpha"
         operator="out"
         id="feComposite127" />
      <feColorMatrix
         type="matrix"
         values="0 0 0 0 0 0 0 0 0 0 0 0 0 0 0 0 0 0 0.25 0"
         id="feColorMatrix128" />
      <feBlend
         mode="normal"
         in2="BackgroundImageFix"
         result="effect1_dropShadow_79_212"
         id="feBlend128" />
      <feBlend
         mode="normal"
         in="SourceGraphic"
         in2="effect1_dropShadow_79_212"
         result="shape"
         id="feBlend129" />
    </filter>
    <filter
       id="filter9_d_79_212"
       x="1628.38"
       y="66.425499"
       width="9.2004404"
       height="8.1097898"
       filterUnits="userSpaceOnUse"
       color-interpolation-filters="sRGB">
      <feFlood
         flood-opacity="0"
         result="BackgroundImageFix"
         id="feFlood129" />
      <feColorMatrix
         in="SourceAlpha"
         type="matrix"
         values="0 0 0 0 0 0 0 0 0 0 0 0 0 0 0 0 0 0 127 0"
         result="hardAlpha"
         id="feColorMatrix129" />
      <feOffset
         dy="4"
         id="feOffset129" />
      <feGaussianBlur
         stdDeviation="2"
         id="feGaussianBlur129" />
      <feComposite
         in2="hardAlpha"
         operator="out"
         id="feComposite129" />
      <feColorMatrix
         type="matrix"
         values="0 0 0 0 0 0 0 0 0 0 0 0 0 0 0 0 0 0 0.25 0"
         id="feColorMatrix130" />
      <feBlend
         mode="normal"
         in2="BackgroundImageFix"
         result="effect1_dropShadow_79_212"
         id="feBlend130" />
      <feBlend
         mode="normal"
         in="SourceGraphic"
         in2="effect1_dropShadow_79_212"
         result="shape"
         id="feBlend131" />
    </filter>
  </defs>
</svg>
